<svg xmlns="http://www.w3.org/2000/svg" viewBox="0 0 36 36"><defs><style>.cls-1{fill:#fff;}.cls-2{fill:none;stroke-linecap:round;stroke-linejoin:round;stroke-width:2px;}.cls-2,.cls-4{stroke:#4d4d4c;}.cls-3{isolation:isolate;}.cls-4{fill:#4d4d4c;stroke-miterlimit:10;stroke-width:0.25px;}</style></defs><g id="SO_0000110"><rect class="cls-1" x="12.34" y="12.34" width="11.31" height="11.31" transform="translate(-7.46 18) rotate(-45)"/><rect class="cls-2" x="12.34" y="12.34" width="11.31" height="11.31" transform="translate(-7.46 18) rotate(-45)"/><g class="cls-3"><path class="cls-4" d="M15.45,15.64a2.73,2.73,0,0,1,.55-.88,2.65,2.65,0,0,1,.85-.57A2.9,2.9,0,0,1,18,14a3.46,3.46,0,0,1,1.33.22,2.54,2.54,0,0,1,.85.54,2.06,2.06,0,0,1,.47.7,2.12,2.12,0,0,1,.14.7,2.48,2.48,0,0,1-.14.89,2.25,2.25,0,0,1-.35.59,2,2,0,0,1-.46.42c-.17.12-.33.23-.47.35a1.9,1.9,0,0,0-.4.4,1.09,1.09,0,0,0-.22.56v.42H17.21v-.5a2.31,2.31,0,0,1,.18-.81,2.26,2.26,0,0,1,.35-.55,2.65,2.65,0,0,1,.43-.4,4.78,4.78,0,0,0,.42-.34,1.52,1.52,0,0,0,.3-.37.86.86,0,0,0,.11-.5,1,1,0,0,0-.25-.76.94.94,0,0,0-.7-.25,1.05,1.05,0,0,0-.52.12,1,1,0,0,0-.36.31,1.38,1.38,0,0,0-.21.46,2.62,2.62,0,0,0-.07.57H15.25A3,3,0,0,1,15.45,15.64Zm3.36,4.8v1.73H17.05V20.44Z"/></g></g></svg>